<svg xmlns="http://www.w3.org/2000/svg" viewBox="0 0 32 32">
  <!-- 8-bit pixel duck favicon for QuackWash -->
  <rect x="12" y="2" width="8" height="2" fill="#111827"/>
  <rect x="10" y="4" width="2" height="2" fill="#111827"/>
  <rect x="12" y="4" width="8" height="2" fill="#FCD34D"/>
  <rect x="20" y="4" width="2" height="2" fill="#111827"/>
  <rect x="8" y="6" width="2" height="2" fill="#111827"/>
  <rect x="10" y="6" width="4" height="2" fill="#FCD34D"/>
  <rect x="14" y="6" width="4" height="2" fill="#1A202C"/>
  <rect x="18" y="6" width="2" height="2" fill="#FCD34D"/>
  <rect x="20" y="6" width="2" height="2" fill="#111827"/>
  <rect x="22" y="6" width="4" height="2" fill="#F97316"/>
  <rect x="26" y="6" width="2" height="2" fill="#111827"/>
  <rect x="8" y="8" width="2" height="2" fill="#111827"/>
  <rect x="10" y="8" width="10" height="2" fill="#FCD34D"/>
  <rect x="20" y="8" width="2" height="2" fill="#111827"/>
  <rect x="22" y="8" width="6" height="2" fill="#F97316"/>
  <rect x="28" y="8" width="2" height="2" fill="#111827"/>
  <rect x="8" y="10" width="2" height="2" fill="#111827"/>
  <rect x="10" y="10" width="10" height="2" fill="#FCD34D"/>
  <rect x="20" y="10" width="2" height="2" fill="#111827"/>
  <rect x="22" y="10" width="4" height="2" fill="#F97316"/>
  <rect x="26" y="10" width="2" height="2" fill="#111827"/>
  <rect x="10" y="12" width="2" height="2" fill="#111827"/>
  <rect x="12" y="12" width="6" height="2" fill="#FCD34D"/>
  <rect x="18" y="12" width="2" height="2" fill="#111827"/>
  <rect x="4" y="14" width="2" height="2" fill="#111827"/>
  <rect x="8" y="14" width="2" height="2" fill="#111827"/>
  <rect x="10" y="14" width="2" height="2" fill="#111827"/>
  <rect x="12" y="14" width="6" height="2" fill="#FCD34D"/>
  <rect x="18" y="14" width="2" height="2" fill="#111827"/>
  <rect x="4" y="16" width="2" height="2" fill="#111827"/>
  <rect x="6" y="16" width="14" height="2" fill="#FCD34D"/>
  <rect x="20" y="16" width="2" height="2" fill="#111827"/>
  <rect x="2" y="18" width="2" height="2" fill="#111827"/>
  <rect x="4" y="18" width="16" height="2" fill="#FCD34D"/>
  <rect x="20" y="18" width="2" height="2" fill="#111827"/>
  <rect x="2" y="20" width="2" height="2" fill="#111827"/>
  <rect x="4" y="20" width="4" height="2" fill="#FCD34D"/>
  <rect x="8" y="20" width="8" height="2" fill="#F59E0B"/>
  <rect x="16" y="20" width="6" height="2" fill="#FCD34D"/>
  <rect x="22" y="20" width="2" height="2" fill="#111827"/>
  <rect x="2" y="22" width="2" height="2" fill="#111827"/>
  <rect x="4" y="22" width="4" height="2" fill="#FCD34D"/>
  <rect x="8" y="22" width="8" height="2" fill="#F59E0B"/>
  <rect x="16" y="22" width="6" height="2" fill="#FCD34D"/>
  <rect x="22" y="22" width="2" height="2" fill="#111827"/>
  <rect x="4" y="24" width="2" height="2" fill="#111827"/>
  <rect x="6" y="24" width="14" height="2" fill="#FCD34D"/>
  <rect x="20" y="24" width="2" height="2" fill="#111827"/>
  <rect x="6" y="26" width="2" height="2" fill="#111827"/>
  <rect x="8" y="26" width="10" height="2" fill="#111827"/>
  <rect x="18" y="26" width="2" height="2" fill="#111827"/>
</svg>
